<?xml version="1.0" encoding="UTF-8"?>
<svg xmlns="http://www.w3.org/2000/svg" width="2048" height="2048" viewBox="0 0 2048 2048">
  <!-- Transparent background -->
  <path d="M 473 1655 L 740 1834 L 1017 1999 L 1300 1831 L 1562 1659 L 1558 1653 L 1355 1756 L 1018 1944 L 669 1750 Z M 390 1234 L 396 1234 L 423 1249 L 456 1270 L 454 1343 L 450 1343 L 389 1306 Z M 1645 1233 L 1646 1307 L 1584 1344 L 1582 1343 L 1580 1334 L 1580 1269 L 1641 1233 Z M 1545 1201 L 1546 1250 L 1507 1273 L 1502 1273 L 1501 1225 L 1542 1200 Z M 491 1201 L 496 1201 L 535 1225 L 535 1261 L 533 1272 L 530 1273 L 490 1250 Z M 1180 1198 L 1186 1609 L 1190 1611 L 1545 1405 L 1548 1476 L 1127 1722 L 1120 1233 Z M 855 1198 L 916 1234 L 912 1708 L 908 1721 L 487 1475 L 491 1405 L 845 1611 L 850 1609 Z M 1468 1247 L 1469 1292 L 1467 1297 L 1449 1306 L 1414 1328 L 1401 1334 L 1320 1381 L 1317 1379 L 1316 1211 L 1319 1207 L 1357 1186 L 1361 1188 L 1363 1299 L 1367 1301 L 1465 1245 Z M 568 1247 L 571 1245 L 625 1277 L 669 1301 L 673 1299 L 675 1188 L 679 1186 L 716 1207 L 719 1210 L 718 1379 L 715 1381 L 569 1296 Z M 1741 1177 L 1743 1199 L 1744 1362 L 1585 1455 L 1581 1451 L 1581 1385 L 1607 1368 L 1680 1326 L 1679 1212 L 1739 1176 Z M 294 1177 L 297 1176 L 356 1211 L 355 1326 L 435 1372 L 455 1386 L 453 1454 L 450 1455 L 292 1362 Z M 1280 1139 L 1283 1141 L 1284 1437 L 1292 1437 L 1544 1290 L 1547 1292 L 1547 1365 L 1221 1556 L 1218 1554 L 1216 1177 Z M 756 1139 L 819 1177 L 817 1552 L 814 1554 L 488 1363 L 489 1292 L 492 1290 L 745 1437 L 750 1435 L 753 1141 Z M 1465 1126 L 1467 1155 L 1467 1204 L 1400 1244 L 1397 1243 L 1395 1240 L 1395 1164 L 1462 1125 Z M 571 1125 L 573 1124 L 641 1164 L 642 1194 L 640 1244 L 635 1244 L 569 1204 L 569 1129 Z M 1359 1096 L 1361 1116 L 1360 1145 L 1322 1168 L 1317 1168 L 1316 1119 L 1356 1095 Z M 676 1095 L 678 1094 L 710 1112 L 720 1120 L 720 1160 L 718 1168 L 716 1169 L 681 1149 L 675 1144 Z M 1281 1026 L 1282 1099 L 1279 1102 L 1222 1135 L 1217 1135 L 1215 1111 L 1215 1063 L 1278 1025 Z M 755 1026 L 758 1025 L 820 1062 L 820 1127 L 818 1134 L 815 1135 L 760 1103 L 754 1098 L 753 1063 Z M 1539 988 L 1542 990 L 1544 1158 L 1531 1167 L 1503 1182 L 1500 1180 L 1499 1068 L 1495 1066 L 1487 1070 L 1474 1079 L 1465 1083 L 1398 1123 L 1394 1121 L 1394 1073 Z M 493 990 L 496 988 L 639 1071 L 643 1075 L 642 1122 L 639 1124 L 569 1082 L 541 1067 L 537 1069 L 535 1181 L 532 1183 L 491 1159 Z M 1281 914 L 1282 983 L 1270 992 L 1182 1043 L 1182 1158 L 1126 1191 L 1121 1191 L 1119 1187 L 1118 1006 L 1276 914 Z M 756 914 L 758 913 L 918 1007 L 917 1141 L 915 1191 L 913 1192 L 853 1156 L 853 1041 L 808 1016 L 754 983 L 754 922 Z M 1639 815 L 1643 821 L 1646 1191 L 1583 1229 L 1579 1223 L 1576 933 L 1567 933 L 1319 1078 L 1316 1076 L 1315 1003 Z M 396 814 L 721 1004 L 720 1076 L 717 1078 L 463 930 L 459 932 L 456 1227 L 453 1229 L 390 1191 L 393 816 Z M 822 715 L 1016 827 L 1212 715 L 1281 754 L 1282 871 L 1085 987 L 1087 1213 L 1019 1253 L 949 1211 L 951 987 L 755 872 L 755 754 Z M 858 694 L 919 658 L 971 690 L 1018 716 L 1112 661 L 1119 659 L 1177 694 L 1177 696 L 1168 703 L 1110 737 L 1080 753 L 1029 784 L 1017 789 L 860 698 Z M 1734 647 L 1738 659 L 1741 1136 L 1682 1170 L 1676 759 L 1665 760 L 1318 963 L 1315 891 Z M 301 647 L 721 892 L 717 962 L 373 761 L 360 759 L 354 1170 L 294 1134 Z M 953 638 L 1006 607 L 1019 601 L 1081 637 L 1082 640 L 1022 676 L 1017 677 L 955 642 Z M 976 534 L 1018 509 L 1055 530 L 1061 535 L 1061 537 L 1026 558 L 1017 561 L 978 538 Z M 1018 387 L 1086 427 L 1086 429 L 1079 435 L 1065 442 L 1054 450 L 1019 470 L 983 450 L 951 430 L 951 427 Z M 1095 342 L 1103 345 L 1243 427 L 1243 430 L 1233 437 L 1097 516 L 1054 492 L 1053 489 L 1073 476 L 1152 431 L 1152 427 L 1055 369 L 1056 365 Z M 940 341 L 980 365 L 981 369 L 884 427 L 884 431 L 982 488 L 979 493 L 940 516 L 793 430 L 796 425 Z M 976 321 L 1018 296 L 1055 317 L 1060 321 L 1060 323 L 1027 343 L 1017 347 L 978 325 Z M 1116 238 L 1443 428 L 1119 619 L 1053 580 L 1310 431 L 1310 427 L 1055 279 L 1054 276 Z M 918 238 L 974 270 L 981 278 L 729 425 L 728 431 L 981 578 L 981 583 L 919 619 L 594 430 L 597 425 Z M 1213 182 L 1634 428 L 1215 675 L 1153 641 L 1153 637 L 1496 438 L 1507 427 L 1156 222 L 1154 216 Z M 823 182 L 881 216 L 880 222 L 529 427 L 530 432 L 882 637 L 878 644 L 822 676 L 402 428 Z M 1020 180 L 1080 216 L 1081 219 L 1078 222 L 1050 237 L 1018 257 L 955 220 L 955 217 L 1015 181 Z M 1455 128 L 1457 134 L 1610 239 L 1867 395 L 1876 684 L 1886 793 L 1894 793 L 1910 574 L 1914 367 L 1647 217 L 1459 126 Z M 582 127 L 578 125 L 356 235 L 122 368 L 127 599 L 141 797 L 149 797 L 160 681 L 169 396 L 393 261 L 581 132 Z M 859 161 L 1019 67 L 1176 159 L 1178 163 L 1130 192 L 1115 198 L 1018 141 L 923 197 L 917 198 L 861 165 Z M 1018 29 L 337 426 L 787 696 L 721 735 L 718 851 L 264 591 L 258 1381 L 941 1779 L 949 1256 L 1018 1292 L 1084 1254 L 1094 1780 L 1778 1380 L 1771 592 L 1316 849 L 1314 734 L 1249 694 L 1699 427 Z" fill="#31DDC5" fill-rule="evenodd"/>
</svg>
